<svg version="1.1" viewBox="0.0 0.0 960.0 720.0" fill="none" stroke="none" stroke-linecap="square" stroke-miterlimit="10" xmlns:xlink="http://www.w3.org/1999/xlink" xmlns="http://www.w3.org/2000/svg"><clipPath id="p.0"><path d="m0 0l960.0 0l0 720.0l-960.0 0l0 -720.0z" clip-rule="nonzero"/></clipPath><g clip-path="url(#p.0)"><path fill="#000000" fill-opacity="0.0" d="m0 0l960.0 0l0 720.0l-960.0 0z" fill-rule="evenodd"/><path fill="#434343" d="m677.126 471.02362l-166.51968 -25.102844l0 -171.84155l166.51968 -25.102844z" fill-rule="evenodd"/><path stroke="#000000" stroke-width="8.0" stroke-linejoin="round" stroke-linecap="butt" d="m677.126 471.02362l-166.51968 -25.102844l0 -171.84155l166.51968 -25.102844z" fill-rule="evenodd"/><path fill="#666666" d="m282.87402 360.0l0 0c0 -85.208405 69.07504 -154.28346 154.28345 -154.28346l0 0c40.918518 0 80.16113 16.254822 109.09491 45.188583c28.933716 28.933746 45.188538 68.17636 45.188538 109.09488l0 0c0 85.208405 -69.07501 154.28345 -154.28345 154.28345l0 0c-85.208405 0 -154.28345 -69.07504 -154.28345 -154.28345z" fill-rule="evenodd"/><path stroke="#000000" stroke-width="8.0" stroke-linejoin="round" stroke-linecap="butt" d="m282.87402 360.0l0 0c0 -85.208405 69.07504 -154.28346 154.28345 -154.28346l0 0c40.918518 0 80.16113 16.254822 109.09491 45.188583c28.933716 28.933746 45.188538 68.17636 45.188538 109.09488l0 0c0 85.208405 -69.07501 154.28345 -154.28345 154.28345l0 0c-85.208405 0 -154.28345 -69.07504 -154.28345 -154.28345z" fill-rule="evenodd"/><path fill="#ff9900" d="m387.55118 360.0l0 0c0 -27.39679 22.209503 -49.606293 49.606293 -49.606293l0 0c13.156433 0 25.773987 5.226349 35.076965 14.529327c9.3029785 9.303009 14.529358 21.920563 14.529358 35.076965l0 0c0 27.39679 -22.209503 49.606293 -49.606323 49.606293l0 0c-27.39679 0 -49.606293 -22.209503 -49.606293 -49.606293z" fill-rule="evenodd"/><path stroke="#000000" stroke-width="8.0" stroke-linejoin="round" stroke-linecap="butt" d="m387.55118 360.0l0 0c0 -27.39679 22.209503 -49.606293 49.606293 -49.606293l0 0c13.156433 0 25.773987 5.226349 35.076965 14.529327c9.3029785 9.303009 14.529358 21.920563 14.529358 35.076965l0 0c0 27.39679 -22.209503 49.606293 -49.606323 49.606293l0 0c-27.39679 0 -49.606293 -22.209503 -49.606293 -49.606293z" fill-rule="evenodd"/></g></svg>