<svg version="1.1" viewBox="0.0 0.0 960.0 720.0" fill="none" stroke="none" stroke-linecap="square" stroke-miterlimit="10" xmlns:xlink="http://www.w3.org/1999/xlink" xmlns="http://www.w3.org/2000/svg"><clipPath id="p.0"><path d="m0 0l960.0 0l0 720.0l-960.0 0l0 -720.0z" clip-rule="nonzero"/></clipPath><g clip-path="url(#p.0)"><path fill="#000000" fill-opacity="0.0" d="m0 0l960.0 0l0 720.0l-960.0 0z" fill-rule="evenodd"/><path fill="#cc0000" d="m379.87515 439.6256l71.905914 -238.78099l106.927185 225.28868z" fill-rule="evenodd"/><path fill="#cc0000" d="m440.65808 427.01654l105.05505 -225.05505l73.88641 238.9476z" fill-rule="evenodd"/><path fill="#cc0000" d="m392.98203 435.57706l-23.193146 -215.57042l175.71918 118.61772z" fill-rule="evenodd"/><path fill="#cc0000" d="m497.86398 354.33597l136.3154 -109.61746l-23.48706 177.4878z" fill-rule="evenodd"/><path fill="#cc0000" d="m465.98346 359.96262l28.847473 -119.619415l55.08722 108.490845z" fill-rule="evenodd"/><path fill="#ff9900" d="m392.65552 439.80658l65.707306 -198.6747l94.78348 186.55956z" fill-rule="evenodd"/><path fill="#ff9900" d="m447.2446 429.02548l95.3746 -187.44386l65.07526 198.07146z" fill-rule="evenodd"/><path fill="#ff9900" d="m404.4335 436.37756l-19.718597 -178.91443l157.03131 97.618805z" fill-rule="evenodd"/><path fill="#ff9900" d="m498.92773 368.3729l122.83478 -91.73135l-21.96399 147.52408z" fill-rule="evenodd"/><path fill="#ff9900" d="m470.30087 373.208l26.480835 -99.49133l48.86911 89.82202z" fill-rule="evenodd"/><path fill="#ffe599" d="m426.2407 437.2019l44.371765 -135.39398l64.205475 127.190796z" fill-rule="evenodd"/><path fill="#ffe599" d="m463.1692 429.87207l64.4483 -127.729004l44.11084 135.02722z" fill-rule="evenodd"/><path fill="#ffe599" d="m434.2078 434.86868l-13.416046 -121.95444l106.282776 66.59012z" fill-rule="evenodd"/><path fill="#ffe599" d="m498.1107 388.54892l83.06711 -62.48221l-14.798096 100.54465z" fill-rule="evenodd"/><path fill="#ffe599" d="m478.74478 391.8348l17.874207 -67.80411l33.1008 61.239105z" fill-rule="evenodd"/></g></svg>